<svg width="1400" height="560" viewBox="0 0 1400 560" xmlns="http://www.w3.org/2000/svg" font-family="Helvetica Neue, Arial, sans-serif">
<title>SHR 10GigE + Bedrock V3000 + Android — Complete Solution Architecture</title>
<defs>
<marker id="aw_blue" markerWidth="8" markerHeight="8" refX="6" refY="4" orient="auto">
  <path d="M1,1 L7,4 L1,7 Z" fill="#1a8cff"/>
</marker>
<marker id="aw_teal" markerWidth="8" markerHeight="8" refX="6" refY="4" orient="auto">
  <path d="M1,1 L7,4 L1,7 Z" fill="#00c87a"/>
</marker>
<marker id="aw_purp" markerWidth="8" markerHeight="8" refX="6" refY="4" orient="auto">
  <path d="M1,1 L7,4 L1,7 Z" fill="#a060f0"/>
</marker>
<marker id="aw_amber" markerWidth="8" markerHeight="8" refX="6" refY="4" orient="auto">
  <path d="M1,1 L7,4 L1,7 Z" fill="#f5a623"/>
</marker>
<marker id="aw_green" markerWidth="8" markerHeight="8" refX="6" refY="4" orient="auto">
  <path d="M1,1 L7,4 L1,7 Z" fill="#4adf80"/>
</marker>
<marker id="aw_gray" markerWidth="8" markerHeight="8" refX="6" refY="4" orient="auto">
  <path d="M1,1 L7,4 L1,7 Z" fill="#636870"/>
</marker>
<marker id="aw_usb" markerWidth="8" markerHeight="8" refX="6" refY="4" orient="auto">
  <path d="M1,1 L7,4 L1,7 Z" fill="#a060f0"/>
</marker>
</defs>
<rect x="0" y="0" width="1400" height="560" rx="0" fill="#0f1014" stroke="none" stroke-width="1"/>
<rect x="0" y="0" width="1400" height="38" rx="0" fill="#1a1c1f" stroke="none" stroke-width="1"/>
<line x1="0" y1="38" x2="1400" y2="38" stroke="#2a2d33" stroke-width="1"/>
<text x="700" y="24" text-anchor="middle" font-size="14" font-weight="600" fill="#f5a623">SHR 10GigE · Bedrock V3000 · Android Qt QML — Complete Solution Architecture</text>
<rect x="20" y="52" width="170" height="260" rx="7" fill="#0d2848" stroke="#1a4a88" stroke-width="1"/>
<text x="105" y="70" text-anchor="middle" font-size="12" font-weight="700" fill="#1a8cff">SVS-Vistek SHR</text>
<text x="105" y="85" text-anchor="middle" font-size="11" font-weight="normal" fill="#1a8cff">10GigE Cameras</text>
<line x1="28" y1="94" x2="182" y2="94" stroke="#1a4a88" stroke-width="0.5"/>
<rect x="28" y="102" width="154" height="88" rx="5" fill="#22252a" stroke="#1a4a88" stroke-width="0.5"/>
<rect x="28" y="102" width="154" height="3" rx="2" fill="#1a8cff" opacity="0.8"/>
<text x="105" y="120" text-anchor="middle" font-size="12" font-weight="600" fill="#1a8cff">Camera 1</text>
<text x="105" y="135" text-anchor="middle" font-size="10" font-weight="normal" fill="#a8adb5">shr411CXGE · 151 MP</text>
<text x="105" y="149" text-anchor="middle" font-size="10" font-weight="normal" fill="#a8adb5">BayerGR12 · 6.1 fps</text>
<text x="105" y="166" text-anchor="middle" font-size="10" font-weight="600" fill="#f5a623" font-family="Menlo, Consolas, monospace">SFP+ 0 · 192.168.10.41</text>
<rect x="28" y="199" width="154" height="88" rx="5" fill="#22252a" stroke="#1a5a30" stroke-width="0.5"/>
<rect x="28" y="199" width="154" height="3" rx="2" fill="#00c87a" opacity="0.8"/>
<text x="105" y="217" text-anchor="middle" font-size="12" font-weight="600" fill="#00c87a">Camera 2</text>
<text x="105" y="232" text-anchor="middle" font-size="10" font-weight="normal" fill="#a8adb5">shr411CXGE · 151 MP</text>
<text x="105" y="246" text-anchor="middle" font-size="10" font-weight="normal" fill="#a8adb5">BayerGR12 · 6.1 fps</text>
<text x="105" y="263" text-anchor="middle" font-size="10" font-weight="600" fill="#f5a623" font-family="Menlo, Consolas, monospace">SFP+ 1 · 192.168.10.42</text>
<rect x="20" y="330" width="170" height="90" rx="7" fill="#1e1030" stroke="#5030a0" stroke-width="1"/>
<text x="105" y="348" text-anchor="middle" font-size="12" font-weight="700" fill="#a060f0">GNSS Receiver</text>
<line x1="28" y1="355" x2="182" y2="355" stroke="#5030a0" stroke-width="0.5"/>
<text x="105" y="371" text-anchor="middle" font-size="10" font-weight="normal" fill="#a8adb5">NMEA 0183 · RS232</text>
<text x="105" y="386" text-anchor="middle" font-size="10" font-weight="normal" fill="#a8adb5">1–20 Hz · RTK optional</text>
<text x="105" y="402" text-anchor="middle" font-size="10" font-weight="normal" fill="#a060f0" font-family="Menlo, Consolas, monospace">/dev/ttyUSB0</text>
<rect x="210" y="52" width="360" height="418" rx="7" fill="#0d2016" stroke="#1a5030" stroke-width="1.5"/>
<text x="390" y="70" text-anchor="middle" font-size="13" font-weight="700" fill="#4adf80">Bedrock V3000</text>
<text x="390" y="85" text-anchor="middle" font-size="10" font-weight="normal" fill="#a8adb5">Ubuntu 24.04 LTS  ·  Headless Daemon  ·  QCoreApplication</text>
<line x1="220" y1="94" x2="560" y2="94" stroke="#1a5030" stroke-width="0.5"/>
<rect x="220" y="101" width="340" height="26" rx="5" fill="#2a1a04" stroke="#7a4a08" stroke-width="1"/>
<text x="390" y="118" text-anchor="middle" font-size="10" font-weight="600" fill="#f5a623">Native Dual 10GbE SFP+  ·  PCIe Gen4  ·  up to 1.25 GB/s per port</text>
<rect x="220" y="136" width="340" height="266" rx="5" fill="#22252a" stroke="#2a2d33" stroke-width="0.5"/>
<text x="390" y="152" text-anchor="middle" font-size="11" font-weight="600" fill="#4adf80">SHR_Backend  (headless — no display)</text>
<line x1="228" y1="160" x2="552" y2="160" stroke="#2a2d33" stroke-width="0.5"/>
<rect x="228" y="168" width="160" height="52" rx="5" fill="#2c2f35" stroke="#1a4a88" stroke-width="0.5"/>
<text x="308" y="188" text-anchor="middle" font-size="11" font-weight="600" fill="#1a8cff">CameraWorker × 2</text>
<text x="308" y="204" text-anchor="middle" font-size="10" font-weight="normal" fill="#a8adb5">Vimba X C++ API</text>
<rect x="396" y="168" width="160" height="52" rx="5" fill="#2c2f35" stroke="#1a4a88" stroke-width="0.5"/>
<text x="476" y="188" text-anchor="middle" font-size="11" font-weight="600" fill="#1a8cff">FrameObserver</text>
<text x="476" y="204" text-anchor="middle" font-size="10" font-weight="normal" fill="#a8adb5">Image Transform Lib</text>
<rect x="228" y="226" width="160" height="52" rx="5" fill="#2c2f35" stroke="#5030a0" stroke-width="0.5"/>
<text x="308" y="246" text-anchor="middle" font-size="11" font-weight="600" fill="#a060f0">NmeaReader</text>
<text x="308" y="262" text-anchor="middle" font-size="10" font-weight="normal" fill="#a8adb5">/dev/ttyUSB0</text>
<rect x="396" y="226" width="160" height="52" rx="5" fill="#2c2f35" stroke="#1a5030" stroke-width="0.5"/>
<text x="476" y="246" text-anchor="middle" font-size="11" font-weight="600" fill="#4adf80">SidecarWriter</text>
<text x="476" y="262" text-anchor="middle" font-size="10" font-weight="normal" fill="#a8adb5">JSON per frame</text>
<rect x="228" y="284" width="160" height="52" rx="5" fill="#2c2f35" stroke="#2a2d33" stroke-width="0.5"/>
<text x="308" y="304" text-anchor="middle" font-size="11" font-weight="600" fill="#636870">TriggerServer</text>
<text x="308" y="320" text-anchor="middle" font-size="10" font-weight="normal" fill="#a8adb5">UDP :9001</text>
<rect x="396" y="284" width="160" height="52" rx="5" fill="#0d2848" stroke="#1a4a88" stroke-width="1"/>
<text x="476" y="304" text-anchor="middle" font-size="11" font-weight="600" fill="#1a8cff">BackendServer</text>
<text x="476" y="320" text-anchor="middle" font-size="10" font-weight="normal" fill="#a8adb5">TCP :9100  ◄► Android</text>
<rect x="228" y="402" width="324" height="22" rx="4" fill="#2c2f35" stroke="#2a2d33" stroke-width="0.5"/>
<text x="390" y="417" text-anchor="middle" font-size="10" font-weight="normal" fill="#636870">systemd  ·  shr-backend.service  ·  autostart at boot  ·  LimitRTPRIO=99</text>
<rect x="228" y="430" width="324" height="22" rx="4" fill="#2c2f35" stroke="#2a2d33" stroke-width="0.5"/>
<text x="390" y="444" text-anchor="middle" font-size="10" font-weight="normal" fill="#636870">/mnt/frames/  ·  frame_NNNNN.ppm  +  frame_NNNNN.json  (3× NVMe PCIe Gen4)</text>
<rect x="582" y="222" width="98" height="78" rx="6" fill="#180a28" stroke="#5030a0" stroke-width="1"/>
<text x="631" y="244" text-anchor="middle" font-size="12" font-weight="700" fill="#a060f0">USB-C</text>
<text x="631" y="260" text-anchor="middle" font-size="11" font-weight="normal" fill="#a060f0">NCM</text>
<text x="631" y="276" text-anchor="middle" font-size="10" font-weight="normal" fill="#636870">&lt;1ms</text>
<text x="631" y="290" text-anchor="middle" font-size="10" font-weight="normal" fill="#636870">latency</text>
<rect x="654" y="52" width="210" height="418" rx="14" fill="#180e22" stroke="#5030a0" stroke-width="1.5"/>
<rect x="662" y="64" width="194" height="394" rx="8" fill="#111214" stroke="#2a2030" stroke-width="0.5"/>
<circle cx="759" cy="466" r="7" fill="none" stroke="#5030a0" stroke-width="1"/>
<rect x="662" y="64" width="194" height="32" rx="8" fill="#1a1c20" stroke="#2a2030" stroke-width="0"/>
<rect x="662" y="96" width="194" height="1" fill="#2a2d33"/>
<text x="759" y="84" text-anchor="middle" font-size="11" font-weight="600" fill="#f0f2f5">SHR Camera Control</text>
<rect x="664" y="100" width="190" height="92" rx="4" fill="#0c1018" stroke="#1e3050" stroke-width="0.5"/>
<rect x="664" y="100" width="190" height="2" rx="1" fill="#1a8cff" opacity="0.8"/>
<text x="674" y="115" text-anchor="start" font-size="10" font-weight="600" fill="#1a8cff">Camera 1  ·  192.168.10.41</text>
<rect x="668" y="122" width="80" height="10" rx="1" fill="#1a2030" stroke="#1e2840" stroke-width="0.3"/>
<rect x="754" y="122" width="104" height="10" rx="1" fill="#141828" stroke="#1e2040" stroke-width="0.3"/>
<rect x="668" y="136" width="80" height="10" rx="1" fill="#1a2030" stroke="#1e2840" stroke-width="0.3"/>
<rect x="754" y="136" width="104" height="10" rx="1" fill="#141828" stroke="#1e2040" stroke-width="0.3"/>
<rect x="668" y="150" width="80" height="10" rx="1" fill="#1a2030" stroke="#1e2840" stroke-width="0.3"/>
<rect x="754" y="150" width="104" height="10" rx="1" fill="#141828" stroke="#1e2040" stroke-width="0.3"/>
<rect x="664" y="164" width="190" height="18" rx="0" fill="#090c10" stroke="#1a1a1a" stroke-width="0"/>
<text x="674" y="176" text-anchor="start" font-size="9" font-weight="normal" fill="#636870" font-family="Menlo, Consolas, monospace">1,284 fr  ·  6.1 fps  ·  1.19 GB/s  ·  0 dropped</text>
<rect x="664" y="196" width="190" height="92" rx="4" fill="#0c1210" stroke="#0d3020" stroke-width="0.5"/>
<rect x="664" y="196" width="190" height="2" rx="1" fill="#00c87a" opacity="0.8"/>
<text x="674" y="211" text-anchor="start" font-size="10" font-weight="600" fill="#00c87a">Camera 2  ·  192.168.10.42</text>
<rect x="668" y="218" width="100" height="10" rx="1" fill="#142018" stroke="#1e3020" stroke-width="0.3"/>
<rect x="774" y="218" width="84" height="10" rx="1" fill="#101812" stroke="#182818" stroke-width="0.3"/>
<rect x="668" y="232" width="100" height="10" rx="1" fill="#142018" stroke="#1e3020" stroke-width="0.3"/>
<rect x="774" y="232" width="84" height="10" rx="1" fill="#101812" stroke="#182818" stroke-width="0.3"/>
<rect x="668" y="246" width="100" height="10" rx="1" fill="#142018" stroke="#1e3020" stroke-width="0.3"/>
<rect x="774" y="246" width="84" height="10" rx="1" fill="#101812" stroke="#182818" stroke-width="0.3"/>
<rect x="664" y="260" width="190" height="18" rx="0" fill="#090e0a" stroke="#1a1a1a" stroke-width="0"/>
<text x="674" y="272" text-anchor="start" font-size="9" font-weight="normal" fill="#636870" font-family="Menlo, Consolas, monospace">1,283 fr  ·  6.1 fps  ·  1.18 GB/s  ·  0 dropped</text>
<rect x="664" y="292" width="190" height="28" rx="6" fill="#185FA5" stroke="#0d4a8a" stroke-width="0"/>
<text x="759" y="310" text-anchor="middle" font-size="11" font-weight="700" fill="#ffffff">⚡   TRIGGER BOTH CAMERAS</text>
<rect x="664" y="328" width="190" height="60" rx="4" fill="#141018" stroke="#2a1a3a" stroke-width="0.5"/>
<text x="674" y="345" text-anchor="start" font-size="10" font-weight="600" fill="#a060f0">GNSS  ·  GPS 3D  ·  9 sats  ·  HDOP 0.9</text>
<line x1="668" y1="352" x2="850" y2="352" stroke="#5030a0" stroke-width="0.5"/>
<text x="674" y="367" text-anchor="start" font-size="10" font-weight="normal" fill="#a8adb5" font-family="Menlo, Consolas, monospace">Lat:  48.137154°</text>
<text x="674" y="382" text-anchor="start" font-size="10" font-weight="normal" fill="#a8adb5" font-family="Menlo, Consolas, monospace">Lon:  11.576124°   Alt: 524.3 m</text>
<rect x="664" y="397" width="190" height="20" rx="4" fill="#22252a" stroke="#2a2d33" stroke-width="0.5"/>
<text x="674" y="410" text-anchor="start" font-size="10" font-weight="600" fill="#636870">Camera config</text>
<text x="844" y="410" text-anchor="end" font-size="9" font-weight="normal" fill="#3d4149">▶</text>
<rect x="664" y="421" width="190" height="20" rx="4" fill="#22252a" stroke="#2a2d33" stroke-width="0.5"/>
<text x="674" y="434" text-anchor="start" font-size="10" font-weight="600" fill="#636870">Trigger config</text>
<text x="844" y="434" text-anchor="end" font-size="9" font-weight="normal" fill="#3d4149">▶</text>
<rect x="664" y="445" width="190" height="20" rx="4" fill="#22252a" stroke="#2a2d33" stroke-width="0.5"/>
<text x="674" y="458" text-anchor="start" font-size="10" font-weight="600" fill="#636870">Acquisition</text>
<text x="844" y="458" text-anchor="end" font-size="9" font-weight="normal" fill="#3d4149">▶</text>
<rect x="664" y="470" width="190" height="36" rx="4" fill="#0a0c0e" stroke="#2a2d33" stroke-width="0.5"/>
<text x="674" y="482" text-anchor="start" font-size="9" font-weight="700" fill="#3d4149">FRAME LOG</text>
<text x="674" y="495" text-anchor="start" font-size="9" font-weight="normal" fill="#636870" font-family="Menlo, Consolas, monospace">11.861  C1  #1284 · geo ✓ · 163ms</text>
<text x="674" y="505" text-anchor="start" font-size="9" font-weight="normal" fill="#636870" font-family="Menlo, Consolas, monospace">11.859  C2  #1283 · geo ✓ · 161ms</text>
<rect x="882" y="52" width="178" height="200" rx="7" fill="#1a1c1f" stroke="#2a2d33" stroke-width="1"/>
<text x="971" y="70" text-anchor="middle" font-size="12" font-weight="700" fill="#f0f2f5">Output per Frame</text>
<text x="971" y="84" text-anchor="middle" font-size="10" font-weight="normal" fill="#636870">V3000 · 3× NVMe PCIe Gen4</text>
<line x1="892" y1="92" x2="1050" y2="92" stroke="#2a2d33" stroke-width="0.5"/>
<rect x="892" y="100" width="158" height="64" rx="5" fill="#22252a" stroke="#2a2d33" stroke-width="0.5"/>
<text x="971" y="117" text-anchor="middle" font-size="11" font-weight="600" fill="#f0f2f5" font-family="Menlo, Consolas, monospace">frame_NNNNN.ppm</text>
<text x="971" y="132" text-anchor="middle" font-size="10" font-weight="normal" fill="#a8adb5">RGB8 debayered image</text>
<text x="971" y="146" text-anchor="middle" font-size="10" font-weight="normal" fill="#636870">14192 × 10640 px  ·  ~432 MB</text>
<rect x="892" y="174" width="158" height="68" rx="5" fill="#22252a" stroke="#2a2d33" stroke-width="0.5"/>
<text x="971" y="191" text-anchor="middle" font-size="11" font-weight="600" fill="#f0f2f5" font-family="Menlo, Consolas, monospace">frame_NNNNN.json</text>
<text x="971" y="206" text-anchor="middle" font-size="10" font-weight="normal" fill="#a8adb5">frame index · timestamp</text>
<text x="971" y="220" text-anchor="middle" font-size="10" font-weight="normal" fill="#a8adb5">lat / lon / alt / HDOP / sats</text>
<text x="971" y="234" text-anchor="middle" font-size="10" font-weight="normal" fill="#636870">raw GGA + RMC sentences</text>
<line x1="190" y1="146" x2="209" y2="157" stroke="#1a8cff" stroke-width="2" marker-end="url(#aw_blue)"/>
<rect x="148" y="178" width="58" height="16" rx="3" fill="#0f1014" stroke="none" stroke-width="1"/>
<text x="177" y="189" text-anchor="middle" font-size="9" font-weight="600" fill="#1a8cff">10GigE</text>
<text x="177" y="202" text-anchor="middle" font-size="9" font-weight="normal" fill="#f5a623">1.25 GB/s</text>
<line x1="190" y1="244" x2="209" y2="227" stroke="#00c87a" stroke-width="2" marker-end="url(#aw_teal)"/>
<line x1="190" y1="374" x2="209" y2="342" stroke="#a060f0" stroke-width="1.5" marker-end="url(#aw_purp)"/>
<rect x="146" y="354" width="62" height="16" rx="3" fill="#0f1014" stroke="none" stroke-width="1"/>
<text x="177" y="365" text-anchor="middle" font-size="9" font-weight="normal" fill="#a060f0">RS232/USB</text>
<line x1="571" y1="260" x2="581" y2="260" stroke="#a060f0" stroke-width="2" marker-end="url(#aw_usb)"/>
<line x1="681" y1="266" x2="653" y2="266" stroke="#a060f0" stroke-width="2" marker-end="url(#aw_usb)"/>
<line x1="653" y1="252" x2="681" y2="252" stroke="#a060f0" stroke-width="2" marker-end="url(#aw_usb)"/>
<line x1="571" y1="432" x2="881" y2="162" stroke="#4adf80" stroke-width="1.5" stroke-dasharray="5,4" marker-end="url(#aw_green)"/>
<rect x="680" y="270" width="68" height="16" rx="3" fill="#0f1014" stroke="none" stroke-width="1"/>
<text x="714" y="281" text-anchor="middle" font-size="9" font-weight="normal" fill="#4adf80">NVMe write</text>
<line x1="0" y1="496" x2="1400" y2="496" stroke="#2a2d33" stroke-width="1"/>
<rect x="0" y="496" width="1400" height="64" rx="0" fill="#1a1c1f" stroke="none" stroke-width="1"/>
<line x1="30" y1="514" x2="66" y2="514" stroke="#1a8cff" stroke-width="2" marker-end="url(#aw_blue)"/>
<text x="72" y="518" text-anchor="start" font-size="10" font-weight="normal" fill="#a8adb5">10GigE  ·  1.25 GB/s</text>
<line x1="230" y1="514" x2="266" y2="514" stroke="#00c87a" stroke-width="2" marker-end="url(#aw_teal)"/>
<text x="272" y="518" text-anchor="start" font-size="10" font-weight="normal" fill="#a8adb5">10GigE  ·  Camera 2</text>
<line x1="420" y1="514" x2="456" y2="514" stroke="#a060f0" stroke-width="2" marker-end="url(#aw_purp)"/>
<text x="462" y="518" text-anchor="start" font-size="10" font-weight="normal" fill="#a8adb5">RS232/USB (GNSS)</text>
<line x1="600" y1="514" x2="636" y2="514" stroke="#a060f0" stroke-width="2" marker-end="url(#aw_purp)"/>
<text x="642" y="518" text-anchor="start" font-size="10" font-weight="normal" fill="#a8adb5">USB-C NCM  ·  &lt;1ms</text>
<line x1="790" y1="514" x2="826" y2="514" stroke="#4adf80" stroke-width="2" stroke-dasharray="5,4" marker-end="url(#aw_green)"/>
<text x="832" y="518" text-anchor="start" font-size="10" font-weight="normal" fill="#a8adb5">NVMe write</text>
<text x="1380" y="518" text-anchor="end" font-size="10" font-weight="normal" fill="#3d4149">Luis Viveros · June 2026</text>
</svg>